<svg xmlns="http://www.w3.org/2000/svg" width="1200" height="760" viewBox="0 0 1200 760" role="img" aria-labelledby="title desc" data-design="hardfest-v2">
<title id="title">Память длинного контекста</title><desc id="desc">Gemma 4 31B: полезные KV одной истории, без округления блоков и рабочих буферов.</desc>
<defs><marker id="arrow-1554dc" viewBox="0 0 10 10" refX="10" refY="5" markerWidth="10" markerHeight="10" markerUnits="userSpaceOnUse" orient="auto"><path d="M0 0 L10 5 L0 10 Z" fill="#1554dc"/></marker><marker id="arrow-087d78" viewBox="0 0 10 10" refX="10" refY="5" markerWidth="10" markerHeight="10" markerUnits="userSpaceOnUse" orient="auto"><path d="M0 0 L10 5 L0 10 Z" fill="#087d78"/></marker><marker id="arrow-7041b8" viewBox="0 0 10 10" refX="10" refY="5" markerWidth="10" markerHeight="10" markerUnits="userSpaceOnUse" orient="auto"><path d="M0 0 L10 5 L0 10 Z" fill="#7041b8"/></marker><marker id="arrow-536278" viewBox="0 0 10 10" refX="10" refY="5" markerWidth="10" markerHeight="10" markerUnits="userSpaceOnUse" orient="auto"><path d="M0 0 L10 5 L0 10 Z" fill="#536278"/></marker></defs>
<style>text{font-family:Arial,Helvetica,sans-serif;font-variant-numeric:tabular-nums}.formula{font-family:"DejaVu Sans Mono",Menlo,Consolas,monospace}</style>
<rect x="1" y="1" width="1198" height="758" rx="20" fill="#ffffff" stroke="#d9e2ee" stroke-width="1.5"/>
<rect x="48" y="38" width="5" height="34" rx="2" fill="#1554dc" stroke="#1554dc" stroke-width="1.5"/>
<text x="70" y="64" font-size="32" fill="#17243b" text-anchor="start" font-weight="700" data-max-width="1082">
<tspan x="70" dy="0">Память длинного контекста</tspan>
</text>
<text x="48" y="104" font-size="20" fill="#536278" text-anchor="start" data-max-width="1104">
<tspan x="48" dy="0">Gemma 4 31B: полезные KV одной истории, без округления блоков и рабочих буферов.</tspan>
</text>
<path d="M48 128 H1152" fill="none" stroke="#d9e2ee" stroke-width="1" stroke-linejoin="round" stroke-linecap="round"/>
<rect x="48" y="160" width="1104" height="126" rx="12" fill="#eef4ff" stroke="#d9e2ee" stroke-width="1.5"/>
<text x="600" y="213" font-size="36" fill="#1554dc" text-anchor="middle" font-weight="700">
<tspan x="600" dy="0">HBM × доля − веса − буферы = KV-пул</tspan>
</text>
<text x="600" y="256" font-size="24" fill="#17243b" text-anchor="middle">
<tspan x="600" dy="0">Доля GPU задаётся параметром gpu-memory-utilization</tspan>
</text>
<text x="76" y="338" font-size="20" fill="#536278" text-anchor="start" font-weight="700">
<tspan x="76" dy="0">КОНТЕКСТ</tspan>
</text>
<text x="480" y="338" font-size="20" fill="#536278" text-anchor="middle" font-weight="700">
<tspan x="480" dy="0">BF16 / 2 БАЙТА</tspan>
</text>
<text x="940" y="338" font-size="20" fill="#536278" text-anchor="middle" font-weight="700">
<tspan x="940" dy="0">FP8 / 1 БАЙТ</tspan>
</text>
<rect x="48" y="365" width="1104" height="82" rx="12" fill="#f5f7fa" stroke="#d9e2ee" stroke-width="1.5"/>
<rect x="744" y="365" width="408" height="82" rx="12" fill="#eaf7f3" stroke="#eaf7f3" stroke-width="1.5"/>
<text x="76" y="419" font-size="34" fill="#17243b" text-anchor="start" font-weight="700">
<tspan x="76" dy="0">64K</tspan>
</text>
<text x="480" y="419" font-size="36" fill="#17243b" text-anchor="middle" font-weight="700">
<tspan x="480" dy="0">5,78 GiB</tspan>
</text>
<text x="940" y="419" font-size="36" fill="#087d78" text-anchor="middle" font-weight="700">
<tspan x="940" dy="0">2,89 GiB</tspan>
</text>
<rect x="48" y="465" width="1104" height="82" rx="12" fill="#f5f7fa" stroke="#d9e2ee" stroke-width="1.5"/>
<rect x="744" y="465" width="408" height="82" rx="12" fill="#eaf7f3" stroke="#eaf7f3" stroke-width="1.5"/>
<text x="76" y="519" font-size="34" fill="#17243b" text-anchor="start" font-weight="700">
<tspan x="76" dy="0">128K</tspan>
</text>
<text x="480" y="519" font-size="36" fill="#17243b" text-anchor="middle" font-weight="700">
<tspan x="480" dy="0">10,78 GiB</tspan>
</text>
<text x="940" y="519" font-size="36" fill="#087d78" text-anchor="middle" font-weight="700">
<tspan x="940" dy="0">5,39 GiB</tspan>
</text>
<rect x="48" y="565" width="1104" height="82" rx="12" fill="#f5f7fa" stroke="#d9e2ee" stroke-width="1.5"/>
<rect x="744" y="565" width="408" height="82" rx="12" fill="#eaf7f3" stroke="#eaf7f3" stroke-width="1.5"/>
<text x="76" y="619" font-size="34" fill="#17243b" text-anchor="start" font-weight="700">
<tspan x="76" dy="0">256K</tspan>
</text>
<text x="480" y="619" font-size="36" fill="#17243b" text-anchor="middle" font-weight="700">
<tspan x="480" dy="0">20,78 GiB</tspan>
</text>
<text x="940" y="619" font-size="36" fill="#087d78" text-anchor="middle" font-weight="700">
<tspan x="940" dy="0">10,39 GiB</tspan>
</text>
<path d="M48 698 H1152" fill="none" stroke="#d9e2ee" stroke-width="1" stroke-linejoin="round" stroke-linecap="round"/>
<text x="48" y="731" font-size="20" fill="#536278" text-anchor="start" data-max-width="1104">
<tspan x="48" dy="0">Сравнение A/B — на 16K. Таблица показывает отдельный расчёт длинного контекста.</tspan>
</text>
</svg>
